<svg xmlns="http://www.w3.org/2000/svg" viewBox="0 0 24 24" fill="currentColor">
  <path d="M1.125 0C.502 0 0 .502 0 1.125v21.75C0 23.498.502 24 1.125 24h21.75c.623 0 1.125-.502 1.125-1.125V1.125C24 .502 23.498 0 22.875 0zm17.363 9.75c.612 0 1.154.037 1.627.111a6.38 6.38 0 0 1 1.306.34v2.458a3.95 3.95 0 0 0-.643-.361 5.093 5.093 0 0 0-.717-.26 5.453 5.453 0 0 0-1.426-.2c-.3 0-.573.028-.819.086a2.1 2.1 0 0 0-.623.242c-.17.104-.3.229-.393.374a.888.888 0 0 0-.14.49c0 .196.053.373.156.529.104.156.252.304.443.444s.423.276.696.41c.273.135.582.274.926.416.47.197.892.407 1.266.628.374.222.695.473.963.753.268.279.472.598.614.957.142.359.214.776.214 1.253 0 .657-.125 1.21-.373 1.656a3.033 3.033 0 0 1-1.012 1.085 4.38 4.38 0 0 1-1.487.596c-.566.12-1.163.18-1.79.18a9.916 9.916 0 0 1-1.84-.164 4.275 4.275 0 0 1-1.512-.493v-2.63a5.784 5.784 0 0 0 3.24.945c.333 0 .624-.03.872-.09.248-.06.456-.144.623-.25.167-.108.29-.234.369-.38a1.023 1.023 0 0 0-.074-1.089 2.12 2.12 0 0 0-.537-.5 5.597 5.597 0 0 0-.807-.444 7.903 7.903 0 0 0-1.01-.436c-.359-.15-.697-.293-1.015-.43-.419-.18-.794-.382-1.126-.606a3.216 3.216 0 0 1-.826-.808 2.12 2.12 0 0 1-.3-1.12c0-.657.197-1.18.59-1.57.394-.389.94-.583 1.64-.583m-4.863.188h2.166v9.646h2.693v-9.646h2.166V7.41h-7.025z"/>
</svg>
