<svg xmlns="http://www.w3.org/2000/svg" viewBox="0 0 24 24" fill="currentColor">
  <path d="M19.14 7.5A2.86 2.86 0 0 1 22 10.36v3.78A2.86 2.86 0 0 1 19.14 17H12c0 .39-.15.74-.39 1-.23.26-.55.44-.96.55a2.78 2.78 0 0 1-1.15.09c-.4-.05-.78-.17-1.13-.35-.35-.19-.65-.44-.9-.73L4.85 17.4a4.32 4.32 0 0 0 2.85 1.1c.67 0 1.3-.1 1.88-.3a4.9 4.9 0 0 0 1.5-.85 4.2 4.2 0 0 0 1-1.27h7.11A2.86 2.86 0 0 0 22 14.14v-3.78a2.86 2.86 0 0 0-2.86-2.86h-2.75V7.5h2.75M4.86 8.64A2.86 2.86 0 0 1 7.71 5.78h3.78A2.86 2.86 0 0 1 14.35 8.64v.61H4.86v-.61M5.61 10.21v3.78c0 .4.08.78.24 1.12.15.35.37.65.65.9.28.25.62.44 1 .55.4.1.8.13 1.2.09.4-.05.78-.17 1.13-.35.35-.19.65-.44.9-.73l1.11 1.11c-.35.4-.78.73-1.27 1a4.9 4.9 0 0 1-1.5.85 4.2 4.2 0 0 1-1.88.3 4.32 4.32 0 0 1-2.85-1.1L2.2 18.93c.25-.29.55-.54.9-.73.35-.18.73-.3 1.13-.35.4-.04.8-.01 1.15.09.41.11.73.29.96.55.24.26.39.61.39 1H4.86A2.86 2.86 0 0 1 2 14.14v-3.78A2.86 2.86 0 0 1 4.86 7.5H12c0-.39.15-.74.39-1 .23-.26.55-.44.96-.55.4-.1.8-.13 1.15-.09.4.05.78.17 1.13.35.35.19.65.44.9.73l1.11-1.11c-.35-.4-.78-.73-1.27-1a4.9 4.9 0 0 0-1.5-.85A4.2 4.2 0 0 0 12 5.78H8.22A2.86 2.86 0 0 0 5.36 8.64v.61h.25m7.89-1.23h-6v-.61A2.86 2.86 0 0 1 10.5 4.36h3.78A2.86 2.86 0 0 1 17.14 7.22v.61h-3.64z"/>
</svg>
